# xmcd
#
# Track frame offsets:
#	150
#	14544
#	29293
#	47388
#	63407
#	79003
#	96796
#	114723
#	131243
#	144793
#	163242
#	177948
#	190778
#	209687
#	225937
#	255614
#
# Disc length: 3420 seconds
#
# Revision: 0
# Processed by: cddbd v1.5.2PL0 Copyright (c) Steve Scherf et al.
# Submitted via: audiograbber 1.83.01
#
DISCID=d60d5a10
DTITLE=Sound Choice - SC8128 favorite Country Duets Vol 1
DYEAR=1900
DGENRE=Karaoke
TTITLE0=Reeves and Cline - Have You Ever Been Lonely 
TTITLE1=Kenny Rogers and Dottie West - Every Time Two Fools Collide 
TTITLE2=Kenny Rogers and Dolly Parton - Islands In The Stream 
TTITLE3=Ricky Van Shelton and Dolly Parton - Rockin' Years 
TTITLE4=Reba McEntire and Vince Gill - Heart Won't Lie, The 
TTITLE5=Whitley and Morgan - Til A Tear Becomes A Rose 
TTITLE6=Kenny Rogers and Kim Carnes - Don't Fall In Love With A Dreamer 
TTITLE7=Brookes and Yearwood - Like We Never Had A Broken Heart 
TTITLE8=O'Brienz and Mattea - Battle Hymn Of Love, The 
TTITLE9=Gayle, Crystal and E. Rabbitt - You And I 
TTITLE10=Greenwood and Mandrell - To Me 
TTITLE11=Greenwood and Bogguss - Hopelessly Yours 
TTITLE12=Seals and Osmond - Meet Me In Montana
TTITLE13=Raye and Parton - Whenever Forever Comes
TTITLE14=Frizzell, David and Shelly West - You're The Reason God Made Oklahoma 
TTITLE15=Data - Data Track
EXTD=
EXTT0=
EXTT1=
EXTT2=
EXTT3=
EXTT4=
EXTT5=
EXTT6=
EXTT7=
EXTT8=
EXTT9=
EXTT10=
EXTT11=
EXTT12=
EXTT13=
EXTT14=
EXTT15=
PLAYORDER=
